<svg width="210" height="74" fill="none" xmlns="http://www.w3.org/2000/svg"><path d="M5 21c37-16.5 97.5 3.5 112.5-14" stroke="#FF7A00" stroke-width="20"/><path d="M18.38 11.8H15.4V8.4h6v-2h-8V20h4.98c3.24 0 4.38-1.76 4.38-4.1s-1.14-4.1-4.38-4.1zm0 6.2H15.4v-4.2h2.98c1.66 0 2.38.5 2.38 2.1s-.72 2.1-2.38 2.1zm14.823-3.2c0-2.94-1.24-4.8-4.32-4.8s-4.32 2.06-4.32 5c0 1.78.56 5 5.08 5 .76 0 1.32 0 2.88-.4v-1.96c-1.3.36-2.08.36-2.88.36-2.18 0-2.82-.86-3-2h6.56v-1.2zm-4.32-2.8c1.58 0 2.24.54 2.32 2h-4.62c.12-1.34.8-2 2.3-2zm5.914 3c0 2.94 1.54 5 4.48 5 2.62 0 4.16-1.62 4.16-3.8h-2c-.08 1.04-.5 1.8-2.06 1.8-1.86 0-2.58-.6-2.58-3s.72-3 2.58-3c1.56 0 1.98.76 2.06 1.8h2c0-2.18-1.54-3.8-4.16-3.8-2.94 0-4.48 2.06-4.48 5zm20.244-5h-9.4v10h2v-8h5.4v8h2V10zm12.377 0h-7.64v1.64c-.02 3.46-.2 6.36-2.34 6.36v2c3.98 0 4.34-4.2 4.36-8h3.62v8h2V10zm10.172 8v-8h-7.2v2h5.2v2.2c-.6-.6-1.38-1-2.78-1-2.44 0-3.58 1.56-3.58 3.4 0 1.84 1.14 3.4 3.58 3.4 1.4 0 2.18-.4 2.78-1v1h3.2v-2h-1.2zm-4.18 0c-1.46 0-2.18-.3-2.18-1.4 0-1.1.72-1.4 2.18-1.4 1.46 0 2.18.3 2.18 1.4 0 1.1-.72 1.4-2.18 1.4zm15.547-8h-9.16v2h3.58v8h2v-8h3.58v-2zm8.586 0v4.22h-4.98V10h-2v10h2v-3.78h4.98V20h2V10h-2zm8.596 10c3.04 0 4.78-2.06 4.78-5s-1.74-5-4.78-5-4.78 2.06-4.78 5 1.74 5 4.78 5zm0-2c-2.06 0-2.78-.6-2.78-3s.72-3 2.78-3c2.06 0 2.78.6 2.78 3s-.72 3-2.78 3zm23.82 0v-8h-7.24v.06c0 4.5 0 5.8-1.74 7.94h-1.06v5.2h2V20h8.04v3.2h2V18h-2zm-6.78 0c1.3-1.78 1.52-3 1.54-6h3.24v6h-4.78zm15.167 2c3.04 0 4.78-2.06 4.78-5s-1.74-5-4.78-5-4.78 2.06-4.78 5 1.74 5 4.78 5zm0-2c-2.06 0-2.78-.6-2.78-3s.72-3 2.78-3c2.06 0 2.78.6 2.78 3s-.72 3-2.78 3zm6.783-3c0 2.94 1.54 5 4.48 5 2.62 0 4.16-1.62 4.16-3.8h-2c-.08 1.04-.5 1.8-2.06 1.8-1.86 0-2.58-.6-2.58-3s.72-3 2.58-3c1.56 0 1.98.76 2.06 1.8h2c0-2.18-1.54-3.8-4.16-3.8-2.94 0-4.48 2.06-4.48 5zm18.808-5h-9.16v2h3.58v8h2v-8h3.58v-2zm9.376 8v-8h-7.2v2h5.2v2.2c-.6-.6-1.38-1-2.78-1-2.44 0-3.58 1.56-3.58 3.4 0 1.84 1.14 3.4 3.58 3.4 1.4 0 2.18-.4 2.78-1v1h3.2v-2h-1.2zm-4.18 0c-1.46 0-2.18-.3-2.18-1.4 0-1.1.72-1.4 2.18-1.4 1.46 0 2.18.3 2.18 1.4 0 1.1-.72 1.4-2.18 1.4zM182 14.82v-.32c1.58-.16 2.1-.94 2.1-1.9 0-1.54-.82-2.6-2.92-2.6h-4.66v10h4.66c2.38 0 3.22-1.22 3.22-2.76 0-1.52-.62-2.26-2.4-2.42zM178.52 12h2.44c.92 0 1.14.18 1.14.86 0 .68-.22.86-1.14.86h-2.44V12zm2.32 6h-2.32v-2.28h2.32c1.22 0 1.56.3 1.56 1.14 0 .84-.34 1.14-1.56 1.14zm12.363-8l-4.48 6.16h-.32V10h-2v10h2l4.48-6.16h.32V20h2V10h-2zm14.272 0l-3.78 6.78h-.32l-3.78-6.78h-2v10h2v-5.24h.32l2.32 3.92h2.6l2.32-3.92h.32V20h2V10h-2zM18.68 39.82v-.32c1.58-.16 2.1-.94 2.1-1.9 0-1.54-.82-2.6-2.92-2.6H13.2v10h4.66c2.38 0 3.22-1.22 3.22-2.76 0-1.52-.62-2.26-2.4-2.42zM15.2 37h2.44c.92 0 1.14.18 1.14.86 0 .68-.22.86-1.14.86H15.2V37zm2.32 6H15.2v-2.28h2.32c1.22 0 1.56.3 1.56 1.14 0 .84-.34 1.14-1.56 1.14zm13.723 0v-8h-7.2v2h5.2v2.2c-.6-.6-1.38-1-2.78-1-2.44 0-3.58 1.56-3.58 3.4 0 1.84 1.14 3.4 3.58 3.4 1.4 0 2.18-.4 2.78-1v1h3.2v-2h-1.2zm-4.18 0c-1.46 0-2.18-.3-2.18-1.4 0-1.1.72-1.4 2.18-1.4 1.46 0 2.18.3 2.18 1.4 0 1.1-.72 1.4-2.18 1.4zm18.987-8v8h-3.8v-8h-2v8h-3.8v-8h-2v10h13.6V35h-2zm11.193 6.4c0 1.94 1.14 3.6 4.18 3.6 2.84 0 3.78-1.46 3.78-2.8 0-1.06-.44-1.96-2.18-2.16v-.32c1.44-.14 1.92-.86 1.92-2.12 0-1.14-1.14-2.6-3.58-2.6-2.64 0-3.78 1.66-3.78 3.2h2c0-1 .72-1.2 1.78-1.2.86 0 1.58.2 1.58 1 0 .84-.62.94-1.28.94h-.88v2h.88c.66 0 1.54.1 1.54 1.06 0 .66-.52 1-1.78 1-1.46 0-2.18-.34-2.18-1.6h-2zm18.12 1.6v-8h-7.2v2h5.2v2.2c-.6-.6-1.38-1-2.78-1-2.44 0-3.58 1.56-3.58 3.4 0 1.84 1.14 3.4 3.58 3.4 1.4 0 2.18-.4 2.78-1v1h3.2v-2h-1.2zm-4.18 0c-1.46 0-2.18-.3-2.18-1.4 0-1.1.72-1.4 2.18-1.4 1.46 0 2.18.3 2.18 1.4 0 1.1-.72 1.4-2.18 1.4zm16.168-8h-2.42l-2.74 4.02h-1.62V35h-2v10h2v-3.98h1.62l2.74 3.98h2.42l-3.42-4.98 3.42-5.02zm9.36 8v-8h-7.2v2h5.2v2.2c-.6-.6-1.38-1-2.78-1-2.44 0-3.58 1.56-3.58 3.4 0 1.84 1.14 3.4 3.58 3.4 1.4 0 2.18-.4 2.78-1v1h3.2v-2h-1.2zm-4.18 0c-1.46 0-2.18-.3-2.18-1.4 0-1.1.72-1.4 2.18-1.4 1.46 0 2.18.3 2.18 1.4 0 1.1-.72 1.4-2.18 1.4zm7.173-1.6c0 1.94 1.14 3.6 4.18 3.6 2.84 0 3.78-1.46 3.78-2.8 0-1.06-.44-1.96-2.18-2.16v-.32c1.44-.14 1.92-.86 1.92-2.12 0-1.14-1.14-2.6-3.58-2.6-2.64 0-3.78 1.66-3.78 3.2h2c0-1 .72-1.2 1.78-1.2.86 0 1.58.2 1.58 1 0 .84-.62.94-1.28.94h-.88v2h.88c.66 0 1.54.1 1.54 1.06 0 .66-.52 1-1.78 1-1.46 0-2.18-.34-2.18-1.6h-2zm26.548-6.4h-9.4v10h2v-8h5.4v8h2V35zm7.382 0c-1.4 0-2.38.54-2.98 1.2V35h-2v13.2h2v-4.4c.6.66 1.58 1.2 2.98 1.2 3.24 0 4.38-2.06 4.38-5s-1.14-5-4.38-5zm-.3 8c-1.96 0-2.68-.6-2.68-3s.72-3 2.68-3c1.96 0 2.68.6 2.68 3s-.72 3-2.68 3zm13.287-8l-4.48 6.16h-.32V35h-2v10h2l4.48-6.16h.32V45h2V35h-2zM22.6 60h-9.4v10h2v-8h5.4v8h2V60zm6.586 10c3.04 0 4.78-2.06 4.78-5s-1.74-5-4.78-5-4.78 2.06-4.78 5 1.74 5 4.78 5zm0-2c-2.06 0-2.78-.6-2.78-3s.72-3 2.78-3c2.06 0 2.78.6 2.78 3s-.72 3-2.78 3zm15.763-8h-2.42l-2.74 4.02h-1.62V60h-2v10h2v-3.98h1.62l2.74 3.98h2.42l-3.42-4.98 3.42-5.02zm8.55 0v4.6c0 2-.72 2.6-2.48 2.6s-2.48-.6-2.48-2.6V60h-2v4.6c0 2.54 1.14 4.6 4.18 4.6 1.2 0 2.18-.54 2.78-1.2v3.2h-5.6v2h7.6V60h-2zm13.808 0h-9.4v10h2v-8h5.4v8h2V60zm11.177 0h-2.42l-2.74 4.02h-1.62V60h-2v10h2v-3.98h1.62l2.74 3.98h2.42l-3.42-4.98 3.42-5.02zm9.425 4.8c0-2.94-1.24-4.8-4.32-4.8s-4.32 2.06-4.32 5c0 1.78.56 5 5.08 5 .76 0 1.32 0 2.88-.4v-1.96c-1.3.36-2.08.36-2.88.36-2.18 0-2.82-.86-3-2h6.56v-1.2zM83.59 62c1.58 0 2.24.54 2.32 2h-4.62c.12-1.34.8-2 2.3-2zm18.097 8c3.04 0 4.78-2.06 4.78-5s-1.74-5-4.78-5-4.78 2.06-4.78 5 1.74 5 4.78 5zm0-2c-2.06 0-2.78-.6-2.78-3s.72-3 2.78-3c2.06 0 2.78.6 2.78 3s-.72 3-2.78 3zm15.943-8h-9.16v2h3.58v8h2v-8h3.58v-2zm15.344 5c1.76-1.66 2.62-2.66 2.62-4.6 0-1.94-1.14-4-4.38-4s-4.38 2.06-4.38 4.6h2c0-2 .72-2.6 2.38-2.6s2.38.6 2.38 2c0 1.46-.72 2.14-2.58 3.74l-4.18 3.86v2h8.56v-2h-5.56l3.14-3zm10.257-8.6c-4.16 0-5.44 3-5.44 6.8s1.28 6.8 5.44 6.8 5.44-3 5.44-6.8-1.28-6.8-5.44-6.8zm3.44 6.8c0 1.14-.08 2.06-.28 2.74l-5.08-7.18c.48-.26 1.12-.36 1.92-.36 2.66 0 3.44 1.18 3.44 4.8zm-6.88 0c0-1.14.08-2.04.26-2.74l5.1 7.18c-.5.26-1.12.36-1.92.36-2.68 0-3.44-1.18-3.44-4.8zm16.33-6.8c-4.16 0-5.44 3-5.44 6.8s1.28 6.8 5.44 6.8 5.44-3 5.44-6.8-1.28-6.8-5.44-6.8zm3.44 6.8c0 1.14-.08 2.06-.28 2.74l-5.08-7.18c.48-.26 1.12-.36 1.92-.36 2.66 0 3.44 1.18 3.44 4.8zm-6.88 0c0-1.14.08-2.04.26-2.74l5.1 7.18c-.5.26-1.12.36-1.92.36-2.68 0-3.44-1.18-3.44-4.8zm16.331-6.8c-4.16 0-5.44 3-5.44 6.8s1.28 6.8 5.44 6.8 5.44-3 5.44-6.8-1.28-6.8-5.44-6.8zm3.44 6.8c0 1.14-.08 2.06-.28 2.74l-5.08-7.18c.48-.26 1.12-.36 1.92-.36 2.66 0 3.44 1.18 3.44 4.8zm-6.88 0c0-1.14.08-2.04.26-2.74l5.1 7.18c-.5.26-1.12.36-1.92.36-2.68 0-3.44-1.18-3.44-4.8zM184.39 70v-2.72h-1.74v-1.3h1.74V64.2h-1.74v-1.52h1.74v-6.96h3.76c1.747 0 3.04.353 3.88 1.06.854.707 1.28 1.733 1.28 3.08 0 1.36-.46 2.427-1.38 3.2-.92.76-2.273 1.14-4.06 1.14h-1.68v1.78h3.3v1.3h-3.3V70h-1.8zm1.8-7.32h1.42c1.214 0 2.154-.2 2.82-.6.68-.4 1.02-1.12 1.02-2.16 0-.907-.28-1.58-.84-2.02-.56-.44-1.433-.66-2.62-.66h-1.8v5.44z" fill="#fff"/></svg>