<svg width="166" height="109" fill="none" xmlns="http://www.w3.org/2000/svg"><path d="M36.68 46.373c9.89-8.296 13.4-14.146 13.4-24.037C50.08 10.954 44.018 0 25.192 0 6.367 0 .304 10.955.304 24.463h13.827c0-7.446 2.233-10.636 11.061-10.636s11.062 2.978 11.062 8.508c0 7.02-4.893 10.85-14.997 18.826L.304 58.498v13.826h48.713V58.498H22.746l13.933-12.125zm25.088-9.785h40.63V22.76h-40.63v13.827zm0 21.271h40.63V44.033h-40.63v13.826zM146 29.78l17.868-15.953V0h-46.585v13.827h27.228l-15.635 14.89 4.786 10.636h7.233c7.445 0 11.274 2.34 11.274 9.572 0 6.914-2.978 9.573-12.125 9.573-9.041 0-12.125-2.66-12.125-9.573h-13.827c0 12.444 7.658 23.4 25.952 23.4s25.951-10.956 25.951-22.336c0-14.571-10.423-21.272-19.995-20.208zM3.97 93.038H0v15.451h3.97v-6.066h5.12v6.066h3.94v-15.45H9.09v6.014H3.97v-6.015zm16.28 15.743c2.214 0 3.647-.996 4.379-2.435h.117v2.143h3.94V98.068c0-3.682-3.023-5.231-6.359-5.231-3.589 0-5.949 1.77-6.524 4.587l3.842.322c.283-1.026 1.17-1.78 2.663-1.78 1.414 0 2.223.734 2.223 2.001v.06c0 .996-1.024 1.127-3.628 1.389-2.965.281-5.627 1.307-5.627 4.758 0 3.058 2.116 4.607 4.974 4.607zm1.19-2.958c-1.278 0-2.195-.613-2.195-1.79 0-1.207.966-1.801 2.429-2.012.907-.131 2.39-.352 2.886-.694v1.64c0 1.619-1.297 2.856-3.12 2.856zm16.276 2.666h7.373c3.745 0 5.832-1.579 5.832-4.215 0-2.032-1.56-3.641-4.252-3.842 2.146-.383 3.423-1.55 3.423-3.22 0-2.675-2.292-4.174-5.988-4.174h-6.388v15.451zm3.872-3.209v-3.37h3.501c1.15 0 1.853.674 1.853 1.771 0 .996-.702 1.599-1.853 1.599h-3.501zm0-5.885v-3.078h2.516c1.287 0 2.077.574 2.077 1.52 0 .975-.75 1.558-1.99 1.558h-2.603zm18.445 9.396c3.99 0 6.496-2.414 6.69-5.965h-3.92c-.244 1.649-1.297 2.575-2.72 2.575-1.942 0-3.2-1.68-3.2-4.637 0-2.918 1.268-4.587 3.2-4.587 1.52 0 2.496 1.036 2.72 2.575h3.92c-.175-3.571-2.798-5.915-6.71-5.915-4.544 0-7.353 3.249-7.353 7.987 0 4.698 2.76 7.967 7.373 7.967zm15.903 0c3.706 0 6.203-1.861 6.788-4.728l-3.843-.262c-.42 1.177-1.492 1.791-2.877 1.791-2.077 0-3.394-1.418-3.394-3.722v-.01h10.202v-1.177c0-5.25-3.082-7.846-7.042-7.846-4.408 0-7.266 3.229-7.266 7.997 0 4.899 2.819 7.957 7.432 7.957zm-3.326-9.587c.088-1.76 1.385-3.168 3.228-3.168 1.805 0 3.053 1.328 3.063 3.168h-6.29zm18.72 9.285h4.154v-5.482h1.551l3.696 5.482h4.935l-5.354-7.786 5.296-7.665h-4.877l-4.076 5.995h-1.17v-5.995H91.33v15.451zm19.786-15.451h-3.969v15.451h3.969v-6.066h5.12v6.066h3.941v-15.45h-3.941v6.014h-5.12v-6.015zm15.978 9.798v-9.798h-3.969v15.451h4.126l5.373-9.828v9.828h3.96v-15.45h-4.096l-5.394 9.797zm22.805-9.798H139.64v15.451h4.037V96.408h6.222v-3.37zm6.228 9.798v-9.798h-3.969v15.451h4.125l5.374-9.828v9.828h3.96v-15.45h-4.096l-5.394 9.797z" fill="#263238"/></svg>