<svg width="210" height="74" viewBox="0 0 210 74" fill="none" xmlns="http://www.w3.org/2000/svg">
<path d="M5 21C42 4.5 102.5 24.5 117.5 7" stroke="#FF7A00" stroke-width="20"/>
<path d="M18.38 11.8H15.4V8.4H21.4V6.4H13.4V20H18.38C21.62 20 22.76 18.24 22.76 15.9C22.76 13.56 21.62 11.8 18.38 11.8ZM18.38 18H15.4V13.8H18.38C20.04 13.8 20.76 14.3 20.76 15.9C20.76 17.5 20.04 18 18.38 18ZM33.2025 14.8C33.2025 11.86 31.9625 10 28.8825 10C25.8025 10 24.5625 12.06 24.5625 15C24.5625 16.78 25.1225 20 29.6425 20C30.4025 20 30.9625 20 32.5225 19.6V17.64C31.2225 18 30.4425 18 29.6425 18C27.4625 18 26.8225 17.14 26.6425 16H33.2025V14.8ZM28.8825 12C30.4625 12 31.1225 12.54 31.2025 14H26.5825C26.7025 12.66 27.3825 12 28.8825 12ZM34.7969 15C34.7969 17.94 36.3369 20 39.2769 20C41.8969 20 43.4369 18.38 43.4369 16.2H41.4369C41.3569 17.24 40.9369 18 39.3769 18C37.5169 18 36.7969 17.4 36.7969 15C36.7969 12.6 37.5169 12 39.3769 12C40.9369 12 41.3569 12.76 41.4369 13.8H43.4369C43.4369 11.62 41.8969 10 39.2769 10C36.3369 10 34.7969 12.06 34.7969 15ZM55.0414 10H45.6414V20H47.6414V12H53.0414V20H55.0414V10ZM67.4183 10H59.7783V11.64C59.7583 15.1 59.5783 18 57.4383 18V20C61.4183 20 61.7783 15.8 61.7983 12H65.4183V20H67.4183V10ZM77.5905 18V10H70.3905V12H75.5905V14.2C74.9905 13.6 74.2105 13.2 72.8105 13.2C70.3705 13.2 69.2305 14.76 69.2305 16.6C69.2305 18.44 70.3705 20 72.8105 20C74.2105 20 74.9905 19.6 75.5905 19V20H78.7905V18H77.5905ZM73.4105 18C71.9505 18 71.2305 17.7 71.2305 16.6C71.2305 15.5 71.9505 15.2 73.4105 15.2C74.8705 15.2 75.5905 15.5 75.5905 16.6C75.5905 17.7 74.8705 18 73.4105 18ZM88.9569 10H79.7969V12H83.3769V20H85.3769V12H88.9569V10ZM97.5433 10V14.22H92.5633V10H90.5633V20H92.5633V16.22H97.5433V20H99.5433V10H97.5433ZM106.139 20C109.179 20 110.919 17.94 110.919 15C110.919 12.06 109.179 10 106.139 10C103.099 10 101.359 12.06 101.359 15C101.359 17.94 103.099 20 106.139 20ZM106.139 18C104.079 18 103.359 17.4 103.359 15C103.359 12.6 104.079 12 106.139 12C108.199 12 108.919 12.6 108.919 15C108.919 17.4 108.199 18 106.139 18ZM129.959 18V10H122.719V10.06C122.719 14.56 122.719 15.86 120.979 18H119.919V23.2H121.919V20H129.959V23.2H131.959V18H129.959ZM123.179 18C124.479 16.22 124.699 15 124.719 12H127.959V18H123.179ZM138.346 20C141.386 20 143.126 17.94 143.126 15C143.126 12.06 141.386 10 138.346 10C135.306 10 133.566 12.06 133.566 15C133.566 17.94 135.306 20 138.346 20ZM138.346 18C136.286 18 135.566 17.4 135.566 15C135.566 12.6 136.286 12 138.346 12C140.406 12 141.126 12.6 141.126 15C141.126 17.4 140.406 18 138.346 18ZM145.129 15C145.129 17.94 146.669 20 149.609 20C152.229 20 153.769 18.38 153.769 16.2H151.769C151.689 17.24 151.269 18 149.709 18C147.849 18 147.129 17.4 147.129 15C147.129 12.6 147.849 12 149.709 12C151.269 12 151.689 12.76 151.769 13.8H153.769C153.769 11.62 152.229 10 149.609 10C146.669 10 145.129 12.06 145.129 15ZM163.937 10H154.777V12H158.357V20H160.357V12H163.937V10ZM173.313 18V10H166.113V12H171.313V14.2C170.713 13.6 169.933 13.2 168.533 13.2C166.093 13.2 164.953 14.76 164.953 16.6C164.953 18.44 166.093 20 168.533 20C169.933 20 170.713 19.6 171.313 19V20H174.513V18H173.313ZM169.133 18C167.673 18 166.953 17.7 166.953 16.6C166.953 15.5 167.673 15.2 169.133 15.2C170.593 15.2 171.313 15.5 171.313 16.6C171.313 17.7 170.593 18 169.133 18ZM182 14.82V14.5C183.58 14.34 184.1 13.56 184.1 12.6C184.1 11.06 183.28 10 181.18 10H176.52V20H181.18C183.56 20 184.4 18.78 184.4 17.24C184.4 15.72 183.78 14.98 182 14.82ZM178.52 12H180.96C181.88 12 182.1 12.18 182.1 12.86C182.1 13.54 181.88 13.72 180.96 13.72H178.52V12ZM180.84 18H178.52V15.72H180.84C182.06 15.72 182.4 16.02 182.4 16.86C182.4 17.7 182.06 18 180.84 18ZM193.203 10L188.723 16.16H188.403V10H186.403V20H188.403L192.883 13.84H193.203V20H195.203V10H193.203ZM207.475 10L203.695 16.78H203.375L199.595 10H197.595V20H199.595V14.76H199.915L202.235 18.68H204.835L207.155 14.76H207.475V20H209.475V10H207.475ZM18.68 39.82V39.5C20.26 39.34 20.78 38.56 20.78 37.6C20.78 36.06 19.96 35 17.86 35H13.2V45H17.86C20.24 45 21.08 43.78 21.08 42.24C21.08 40.72 20.46 39.98 18.68 39.82ZM15.2 37H17.64C18.56 37 18.78 37.18 18.78 37.86C18.78 38.54 18.56 38.72 17.64 38.72H15.2V37ZM17.52 43H15.2V40.72H17.52C18.74 40.72 19.08 41.02 19.08 41.86C19.08 42.7 18.74 43 17.52 43ZM31.2428 43V35H24.0428V37H29.2428V39.2C28.6428 38.6 27.8628 38.2 26.4628 38.2C24.0228 38.2 22.8828 39.76 22.8828 41.6C22.8828 43.44 24.0228 45 26.4628 45C27.8628 45 28.6428 44.6 29.2428 44V45H32.4428V43H31.2428ZM27.0628 43C25.6028 43 24.8828 42.7 24.8828 41.6C24.8828 40.5 25.6028 40.2 27.0628 40.2C28.5228 40.2 29.2428 40.5 29.2428 41.6C29.2428 42.7 28.5228 43 27.0628 43ZM46.05 35V43H42.25V35H40.25V43H36.45V35H34.45V45H48.05V35H46.05ZM57.243 41.4C57.243 43.34 58.383 45 61.423 45C64.263 45 65.203 43.54 65.203 42.2C65.203 41.14 64.763 40.24 63.023 40.04V39.72C64.463 39.58 64.943 38.86 64.943 37.6C64.943 36.46 63.803 35 61.363 35C58.723 35 57.583 36.66 57.583 38.2H59.583C59.583 37.2 60.303 37 61.363 37C62.223 37 62.943 37.2 62.943 38C62.943 38.84 62.323 38.94 61.663 38.94H60.783V40.94H61.663C62.323 40.94 63.203 41.04 63.203 42C63.203 42.66 62.683 43 61.423 43C59.963 43 59.243 42.66 59.243 41.4H57.243ZM75.3639 43V35H68.1639V37H73.3639V39.2C72.7639 38.6 71.9839 38.2 70.5839 38.2C68.1439 38.2 67.0039 39.76 67.0039 41.6C67.0039 43.44 68.1439 45 70.5839 45C71.9839 45 72.7639 44.6 73.3639 44V45H76.5639V43H75.3639ZM71.1839 43C69.7239 43 69.0039 42.7 69.0039 41.6C69.0039 40.5 69.7239 40.2 71.1839 40.2C72.6439 40.2 73.3639 40.5 73.3639 41.6C73.3639 42.7 72.6439 43 71.1839 43ZM87.3511 35H84.9311L82.1911 39.02H80.5711V35H78.5711V45H80.5711V41.02H82.1911L84.9311 45H87.3511L83.9311 40.02L87.3511 35ZM96.7116 43V35H89.5116V37H94.7116V39.2C94.1116 38.6 93.3316 38.2 91.9316 38.2C89.4916 38.2 88.3516 39.76 88.3516 41.6C88.3516 43.44 89.4916 45 91.9316 45C93.3316 45 94.1116 44.6 94.7116 44V45H97.9116V43H96.7116ZM92.5316 43C91.0716 43 90.3516 42.7 90.3516 41.6C90.3516 40.5 91.0716 40.2 92.5316 40.2C93.9916 40.2 94.7116 40.5 94.7116 41.6C94.7116 42.7 93.9916 43 92.5316 43ZM99.7039 41.4C99.7039 43.34 100.844 45 103.884 45C106.724 45 107.664 43.54 107.664 42.2C107.664 41.14 107.224 40.24 105.484 40.04V39.72C106.924 39.58 107.404 38.86 107.404 37.6C107.404 36.46 106.264 35 103.824 35C101.184 35 100.044 36.66 100.044 38.2H102.044C102.044 37.2 102.764 37 103.824 37C104.684 37 105.404 37.2 105.404 38C105.404 38.84 104.784 38.94 104.124 38.94H103.244V40.94H104.124C104.784 40.94 105.664 41.04 105.664 42C105.664 42.66 105.144 43 103.884 43C102.424 43 101.704 42.66 101.704 41.4H99.7039ZM126.252 35H116.852V45H118.852V37H124.252V45H126.252V35ZM133.634 35C132.234 35 131.254 35.54 130.654 36.2V35H128.654V48.2H130.654V43.8C131.254 44.46 132.234 45 133.634 45C136.874 45 138.014 42.94 138.014 40C138.014 37.06 136.874 35 133.634 35ZM133.334 43C131.374 43 130.654 42.4 130.654 40C130.654 37.6 131.374 37 133.334 37C135.294 37 136.014 37.6 136.014 40C136.014 42.4 135.294 43 133.334 43ZM146.621 35L142.141 41.16H141.821V35H139.821V45H141.821L146.301 38.84H146.621V45H148.621V35H146.621ZM22.6 60H13.2V70H15.2V62H20.6V70H22.6V60ZM29.1863 70C32.2263 70 33.9662 67.94 33.9662 65C33.9662 62.06 32.2263 60 29.1863 60C26.1463 60 24.4063 62.06 24.4063 65C24.4063 67.94 26.1463 70 29.1863 70ZM29.1863 68C27.1263 68 26.4063 67.4 26.4063 65C26.4063 62.6 27.1263 62 29.1863 62C31.2463 62 31.9663 62.6 31.9663 65C31.9663 67.4 31.2463 68 29.1863 68ZM44.9488 60H42.5288L39.7888 64.02H38.1688V60H36.1688V70H38.1688V66.02H39.7888L42.5288 70H44.9488L41.5288 65.02L44.9488 60ZM53.4998 60V64.6C53.4998 66.6 52.7798 67.2 51.0198 67.2C49.2598 67.2 48.5398 66.6 48.5398 64.6V60H46.5398V64.6C46.5398 67.14 47.6798 69.2 50.7198 69.2C51.9198 69.2 52.8998 68.66 53.4998 68V71.2H47.8998V73.2H55.4998V60H53.4998ZM67.307 60H57.907V70H59.907V62H65.307V70H67.307V60ZM78.4839 60H76.0639L73.3239 64.02H71.7039V60H69.7039V70H71.7039V66.02H73.3239L76.0639 70H78.4839L75.0639 65.02L78.4839 60ZM87.9095 64.8C87.9095 61.86 86.6695 60 83.5895 60C80.5095 60 79.2695 62.06 79.2695 65C79.2695 66.78 79.8295 70 84.3495 70C85.1095 70 85.6695 70 87.2295 69.6V67.64C85.9295 68 85.1495 68 84.3495 68C82.1695 68 81.5295 67.14 81.3495 66H87.9095V64.8ZM83.5895 62C85.1695 62 85.8295 62.54 85.9095 64H81.2895C81.4095 62.66 82.0895 62 83.5895 62ZM101.686 70C104.726 70 106.466 67.94 106.466 65C106.466 62.06 104.726 60 101.686 60C98.6463 60 96.9063 62.06 96.9063 65C96.9063 67.94 98.6463 70 101.686 70ZM101.686 68C99.6263 68 98.9063 67.4 98.9063 65C98.9063 62.6 99.6263 62 101.686 62C103.746 62 104.466 62.6 104.466 65C104.466 67.4 103.746 68 101.686 68ZM117.629 60H108.469V62H112.049V70H114.049V62H117.629V60ZM132.973 65C134.733 63.34 135.593 62.34 135.593 60.4C135.593 58.46 134.453 56.4 131.213 56.4C127.973 56.4 126.833 58.46 126.833 61H128.833C128.833 59 129.553 58.4 131.213 58.4C132.873 58.4 133.593 59 133.593 60.4C133.593 61.86 132.873 62.54 131.013 64.14L126.833 68V70H135.393V68H129.833L132.973 65ZM143.23 56.4C139.07 56.4 137.79 59.4 137.79 63.2C137.79 67 139.07 70 143.23 70C147.39 70 148.67 67 148.67 63.2C148.67 59.4 147.39 56.4 143.23 56.4ZM146.67 63.2C146.67 64.34 146.59 65.26 146.39 65.94L141.31 58.76C141.79 58.5 142.43 58.4 143.23 58.4C145.89 58.4 146.67 59.58 146.67 63.2ZM139.79 63.2C139.79 62.06 139.87 61.16 140.05 60.46L145.15 67.64C144.65 67.9 144.03 68 143.23 68C140.55 68 139.79 66.82 139.79 63.2ZM156.12 56.4C151.96 56.4 150.68 59.4 150.68 63.2C150.68 67 151.96 70 156.12 70C160.28 70 161.56 67 161.56 63.2C161.56 59.4 160.28 56.4 156.12 56.4ZM159.56 63.2C159.56 64.34 159.48 65.26 159.28 65.94L154.2 58.76C154.68 58.5 155.32 58.4 156.12 58.4C158.78 58.4 159.56 59.58 159.56 63.2ZM152.68 63.2C152.68 62.06 152.76 61.16 152.94 60.46L158.04 67.64C157.54 67.9 156.92 68 156.12 68C153.44 68 152.68 66.82 152.68 63.2ZM169.011 56.4C164.851 56.4 163.571 59.4 163.571 63.2C163.571 67 164.851 70 169.011 70C173.171 70 174.451 67 174.451 63.2C174.451 59.4 173.171 56.4 169.011 56.4ZM172.451 63.2C172.451 64.34 172.371 65.26 172.171 65.94L167.091 58.76C167.571 58.5 168.211 58.4 169.011 58.4C171.671 58.4 172.451 59.58 172.451 63.2ZM165.571 63.2C165.571 62.06 165.651 61.16 165.831 60.46L170.931 67.64C170.431 67.9 169.811 68 169.011 68C166.331 68 165.571 66.82 165.571 63.2ZM184.389 70V67.28H182.649V65.98H184.389V64.2H182.649V62.68H184.389V55.72H188.149C189.896 55.72 191.189 56.0733 192.029 56.78C192.883 57.4867 193.309 58.5133 193.309 59.86C193.309 61.22 192.849 62.2867 191.929 63.06C191.009 63.82 189.656 64.2 187.869 64.2H186.189V65.98H189.489V67.28H186.189V70H184.389ZM186.189 62.68H187.609C188.823 62.68 189.763 62.48 190.429 62.08C191.109 61.68 191.449 60.96 191.449 59.92C191.449 59.0133 191.169 58.34 190.609 57.9C190.049 57.46 189.176 57.24 187.989 57.24H186.189V62.68Z" fill="white"/>
</svg>
